<svg xmlns="http://www.w3.org/2000/svg" width="68.465" height="60" viewBox="0 0 68.465 60">
	<g>
		<g>
		<path d="M68.462 49.152a5.933 5.933 0 0 0-2.624-3.285c-1.156-.936-4.624-2.171-6.061-2.642.752-.208 1.7-1.1 4.581 0 .391.147.11-.4 1.223-.612l.85-.122c-.887-2.679-1.223-.612-4.557-2.447a10.588 10.588 0 0 0-3.058-.8l1.278-.385c.966-.281 2.337.685 2.973.471.453-.153 1.707 0 2.563-.245.287-.55-.19-.422-.171-1.125-.416-.11-.966-.19-1.395-.275a7.866 7.866 0 0 1-3.419-1.358c-.379-.245-1.939-1.223-1.59-1.792l2.3.612c.612.171.41-.416.661-.257 1.535.954 1.976-.22 3.144-.19-.116-.257 0-.569-.135-.826-.049-.128-.3-.2-.355-.324a8.826 8.826 0 0 1-3.022-1c-1.627-.716-1.645-.612-2.337-2.4l.245-.22a21.164 21.164 0 0 0 2.483.838c.245-.232 0-.667.41-.575.875.214.514.239 1.4-.061-.232-.5 0-.459-.208-.966 0 0-3.554-1.028-4.037-1.639a1.376 1.376 0 0 1-.4-1.511c.55.765.612.893 1.45.569.147.165.3.324.453.489.141-.031.514-.073.612-.177a1.988 1.988 0 0 1 .973-.422c-.141-.324 0-.612-.122-.9 0-.1-.306-.239-.343-.336-.489 0-2.74-.569-2.648-1.223l-.343-.373c-.312-.722 1.835-.263 2.11-.165.471-.385.281-.294.82-.318-.08-.612-.33-1.028-.844-1.046-1-.037-1.321-.612-2.153-1.272.612-.153.612.135 1.284-.281.251.08.612 0 .869.067.135-.239.251-.245.465-.489a3.724 3.724 0 0 0-.1-.434c-.19-.532-1.333-.08-1.743-.575-.979-1.187.489-.4 1.223-.813l.171-.477c-1.835-.526-1.132-1.358-1.658-3.009 0-.055-.049-.116-.1-.061-.526.581-.557 3-2.759 2.52l.037.324a5.505 5.505 0 0 0 .881.612c.049.031.569.128.569.128 0 .447-1.156.5-1.425.538-.391.061-1.083-.367-1.083-.043 0 1.162.991 1.223 1.382 1.5.1.061.679.214.685.226.257.385-1.982.82-2.11.826-.758.061-1.492-.5-1.517.2s1.743 1.3 2.19 1.223c.232 0 1.046.251.612.685a8.133 8.133 0 0 1-3.058.092c-.477-.116-1.26-.7-1.346-.2a1.223 1.223 0 0 0 .251 1.07c.44.422 1.223.263 1.278.538.049.422 1.37.905 1.921.942.135 0 .073.208.055.263-.214.9-3.407 1.223-4.043 1.125h-.071a3.285 3.285 0 0 1 .93-.263c.141-.055.71-.245.869-.165.294.153.563-.165.612-.177-.043-.459-.061-.477-.226-.612s-.214-.624-1.046-.911c-.612-.22-1.835-.557-2.581-.758-.612-.171-1.468-.514-1.651-.881-.135-.5.526-.679 1.138-.734 1.107 0-.2.379 1.223.306.471.037 1.1 0 1.223-.349.049-.147.9.043 1.437-.447.19-1.835-2.832-1.223-3.737-1.664 0 0-3.058-1.352-2.281-1.731s2.165.612 3.174.128a21.028 21.028 0 0 0 2.018-.862c.324-.4.55-.245.141-.8h-.917c-.74 0-4.563-.459-4.661-1.37a.612.612 0 0 0-.086-.275c.416.147 3.126.232 3.089-.22-.067-.905 1.645-.214 1.541-1.725 0-.483-1.052-.049-1.609 0-.447.037-5.181-.245-3.126-1.064.489-.2.514.153 1.321-.061.318-.086 2.3-.355 1.835-1.162a20.43 20.43 0 0 1-2.21-.253c-.092-.037-1.89-.7-1.59-.979 0 0 .667-.067.8-.11.508-.183 1.572-.11 1.835-1.223.067-.3-.765 0-1.144-.122-1.835-.563-1.364-.973-1.095-.771s1.174-.336 1.462-.477l.112-.318c-2.5.147-1.774-3.015-2.281-2.4-.936 1.223-.881 2.018-2.373 2.19-.11.532.22.612.777.7.122 0 1.058-.153.44.294-.74.532-2.257.208-2.447.771-.037.086-.1.306-.141.361.135.287.416.251.5.526.294 0 .477.141.765.11.71.269.648.44 1.309.477-1.119.691-1.578 1.3-2.777 1.138-.612-.067-.966.324-1.187.893.612.122.4 0 .838.453.324-.061 2.648-.343 2.3.22 0 0-.691.667-.71.679a9.322 9.322 0 0 1-3.444.5.22.22 0 0 0-.275.116c-.1.177.147.287-.037.612.673.33.612.183 1.162.661.11.092 1.223.349 1.547.483.612.257.612.043 1.419-.183a1 1 0 0 0 .043.183 4.282 4.282 0 0 1-2.159 1.792 9.42 9.42 0 0 1-1.376.294 4.532 4.532 0 0 1-1.174.031c-.306.373 0 .41 0 .508.991.55.343.349 1.278.355.361 0 .214.22.1.465-.7-.2-1.291-.483-1.9-.612-1.266-.318-2.416-.5-1.835-.985 1.438-1.232 1.638-.132 2.217-.432.82-.428 1.272.532 1.419-.073.037-.141.862.037 1.34-.422.055-1.725-2.771-1.156-3.67-1.584 0 0-2.979-1.278-2.281-1.645s2.092.612 3.022.128a20.056 20.056 0 0 0 1.835-.82c.281-.379.508-.232.08-.765h-.824c-.7 0-4.361-.434-4.514-1.3a.612.612 0 0 0-.1-.263c.41.141 2.985.22 2.924-.208-.128-.862 1.547-.2 1.346-1.639-.061-.453-1-.043-1.529 0-.422 0-4.936-.239-3.058-1.015.453-.183.5.141 1.223-.061.294-.073 2.159-.33 1.639-1.095 0-.049-1.572-.073-2.116-.251-.092 0-1.835-.667-1.578-.924 0 0 .612-.067.752-.11.465-.171 1.48-.1 1.645-1.168.043-.281-.728 0-1.095-.116-1.72-.569-1.316-.969-1.047-.769s1.089-.336 1.358-.459a1.067 1.067 0 0 1 .086-.294c-1.223.08-1.554-.783-1.762-1.468a9.743 9.743 0 0 0-.239-1.107.149.149 0 0 0-.257.028c-.086.135-.245.722-.343.911-.483.887-.563 1.333-1.762 1.468-.067.5.251.612.783.661.116 0 1-.147.44.275-.667.508-1.792.5-2.281.875a.612.612 0 0 0-.128.208 1.835 1.835 0 0 1 .213.449c.275-.037.752.183 1.028.153a1.132 1.132 0 0 0 1.058.287c.073 0 .11.19.214.165a6.019 6.019 0 0 1-2.814 1.064c-.569 0-.612.3-.789.838.612.122.379 0 .826.434.349-.067 3.15-.41 1.908.489a3.193 3.193 0 0 1-2.41.612c-.165 0-1.119.263-1.3.239-.19.373-.092.391-.294.765.661.312.728.1 1.284.557.043.031.41.2.5.245.165-.135.612-.061.789-.2.875.422.771.453 1.6.214l.055.171a3.27 3.27 0 0 1-2.973 1.835c-.373-.049-.483-.1-.826.147-.147-.1-.654.061-.8-.043-.685.1-.165.563-.379.844.979.52.673.41 1.56.4.758 0-.41.642 1.223.648 1.266 0 1.529-.538 1.976-.471-.489 1.223-.557 1.492-2.71 1.872a11.346 11.346 0 0 1-2.783.41l-.257.477.33.526c.544.08.789.11 1 .318-1.749.147-4.19-.807-4.171-1.089a.612.612 0 0 0-.086-.41 2.263 2.263 0 0 0 .661.153 13.83 13.83 0 0 0 2.177-.122c.19-.1-.043-.379.122-.532a1.4 1.4 0 0 1 .569-.208l.612-.44c.147-.526.159-.893-.037-.991a3.8 3.8 0 0 0-.612.2 4.685 4.685 0 0 1-1.168.2c-.165 0-.612-.031-.612-.031l-2.19-.379s-.336-.306-.239-.379a4.893 4.893 0 0 1 .7-.287 2.11 2.11 0 0 0 .8.092 13.26 13.26 0 0 0 1.511-.471c.067-.092.33-.116.343-.336s0-.416-.128-.471c-.257-.073 0 .049-.917.073a6.851 6.851 0 0 1-2.312-.575c-.281-.092-.777-.5-.373-.434s.654-.19 1-.22a2.116 2.116 0 0 0 .581-.128l.3-.349.153-.33s.19-.483-.08-.428l-.722.128a9.364 9.364 0 0 1-1.615-.422c0-.043-.086-.2-.043-.2s.232.037.33.031a3.829 3.829 0 0 0 .612-.251l.492-.337v-.292a4.643 4.643 0 0 1-.477.049c-1.18 0-1.382-1.45-1.651-2.324-.086-.263-.226-.208-.3 0a8.689 8.689 0 0 1-.612 1.927 3.578 3.578 0 0 1-1.584.612l.08.391a2.911 2.911 0 0 0 1.291.159c.869-.049-.153.654-.153.654l-.844.135-.881-.031c-.135 0-.44.532-.44.532a2.881 2.881 0 0 0 .349.318.93.93 0 0 1 .22.245l.93-.141a3.26 3.26 0 0 0 .783.459 5.4 5.4 0 0 0 .661-.1l-1.413.648-.612.2-.826-.012-.557.183-.318.257-.122.355.563.043.391.275.612-.11h1.015a6.551 6.551 0 0 1 .85.214c.116.037.049.245.049.245l-.447.257s0 .287-.8.44a18.228 18.228 0 0 1-1.933.306 7.059 7.059 0 0 0-.893.122l-.232.355v.373l.826.379.214.2.661.171.581-.349a5.676 5.676 0 0 0 .7.226 1.639 1.639 0 0 0 .612-.122l.489-.367.049.526a5.872 5.872 0 0 1-1.034.581c-1.223.544-2.52.447-3.431.807l-1.468.141.135.85s.838.275.991.306.832-.245.862.043.159.318.159.318 1.077-.092 1.5-.092a7.646 7.646 0 0 0 1.266-.2l.239.232c-.887 1.376-.667.875-2.63 1.321-1.223.269-1.547.306-2.624.612l-.135.294.147.281a.722.722 0 0 1 .44 0c.073.049.049.19.135.208.251.061.5-.073.612-.061a5.107 5.107 0 0 1 1.284.177.911.911 0 0 1 .367.312c.08.1.349 0 .5 0s.128.251.269.269c.379.067.489.055.41.245s.226.367-1.737.936c-3.058.893-2.361.612-3 .667h-.2c-.447-.2-.734-.391-.734-.483a.612.612 0 0 0-.073-.385 2.08 2.08 0 0 0 .612.177 8.159 8.159 0 0 0 1.6-.159 2.447 2.447 0 0 0 .508-.318 1.223 1.223 0 0 1 .526-.165l.575-.367c.135-.477.147-.612 0-.728a3.327 3.327 0 0 0-.538.153 3.823 3.823 0 0 1-1.07-.067c-.153 0-.55-.061-.55-.061l-2.055-.453s-.3-.3-.214-.361a4.367 4.367 0 0 1 .642-.226 1.835 1.835 0 0 0 .728.122 11.151 11.151 0 0 0 1.388-.349c.061-.08.3-.086.312-.287s0-.379-.116-.44c-.232-.08 0 .049-.838 0a6.728 6.728 0 0 1-2.11-.654c-.257-.1-.71-.5-.336-.416s.612-.141.917-.153a1.756 1.756 0 0 0 .526-.086l.416-.612s.183-.434-.067-.4-.557.067-.679.08a8.82 8.82 0 0 1-1.468-.471c0-.043-.073-.275-.031-.281s.2.141.294.135a2.759 2.759 0 0 0 .612-.2l.459-.275v-.269a3.058 3.058 0 0 1-.44 0 2.4 2.4 0 0 1-.758-.3 4.453 4.453 0 0 1-.734-1.566c0-.037-.08-.294-.153-.122a8.514 8.514 0 0 1-.807 1.456 3 3 0 0 1-1.315.508v.245a2.092 2.092 0 0 0 .887.263 2.19 2.19 0 0 0 .465-.049c.147 0 .11.073.092.165s-.159.183-.44.263a7.205 7.205 0 0 1-1.5.287c-.122 0-.4.459-.4.459a3.114 3.114 0 0 0 .305.303.807.807 0 0 1 .2.239l.826-.08a3.058 3.058 0 0 0 .716.459 4.22 4.22 0 0 0 .612-.061l-1.3.7-.581.147-.734-.067-.514.135-.287.22-.116.318.508.067.361.275.538-.067s.777.073.924.08a3.009 3.009 0 0 1 .777.073c.11.043.049.226.049.226l-.416.214s0 .263-.734.361a16.582 16.582 0 0 1-1.768.177l-.55-.049-.355.208-.306.734.875.3.2.2.612.275.532-.294a5.664 5.664 0 0 0 .642.251 1.431 1.431 0 0 0 .532-.086l.453-.055.037.147a2.532 2.532 0 0 1-.948.734 9.927 9.927 0 0 1-1.633.55c-.22 0-.844-.092-.844-.092l-.648.208h-.69l-.3.2-.2.447s.758.294.9.33.765-.177.789.086a.612.612 0 0 0 .147.385l1.37.086a4 4 0 0 0 1.156-.287l.22.055c-.822 1.224-.608 1.183-2.412 1.493a8.482 8.482 0 0 1-1.9.263h-.981l-.22.177-.159.728s.765 0 .875.183a4.789 4.789 0 0 1 .263.538 2.728 2.728 0 0 1 .581-.122 7.573 7.573 0 0 1 .862.171 1.909 1.909 0 0 1 .361-.122c.043 0 .208.306.275.355s2.373-.049 2.373-.049a.349.349 0 0 1-.135.434 4.722 4.722 0 0 1-2.551 1.26c-2.826.661-2.159.391-2.746.453-1.352.141-.905.214-1.321.832a.612.612 0 0 0 0 .544l.563.141 1.083.037a1.388 1.388 0 0 1 .422.153 3.144 3.144 0 0 0 .948.067 10.041 10.041 0 0 1 1.223-.067c.171.049.96 0 1.083.067s.226.11.483.22l-.122.159-.667.575s-1.4.63-1.56.673-3.431.648-3.7.679-.722.752-.722.752l.055.355.116.1.648.324s.954 0 1.015.153a.612.612 0 0 0 .416.226 4.894 4.894 0 0 1 .881-.3c.147 0 .728.263.869.275s.612-.434.862-.336a2.239 2.239 0 0 0 .74.043c.183 0 .538.4.8.526a3.767 3.767 0 0 0 .514 0 7.774 7.774 0 0 0-2.22.612 6.453 6.453 0 0 1-2.8.74c-.612 0-.532.239-.74.905.226 0 .367.349.612.385.887.135 1.223.385 1.547.269a3.437 3.437 0 0 1 1.707-.116c1.021 0 1.223.453 1.707.349 1.015-.208 1.125-.269 1.291-.19-.661.294-1.278.612-1.786.807-2.385 1.033-4.895 1.43-6.729 3.382-.973 1.015-1.174 2.067 1.193 2.324.514.049 3.67.783 2.361 1.78-1.676.954-3.193 3.266 1.089 3.817a55.388 55.388 0 0 0 6.117.263c2.942.031 2.759.71 2.153 1.395-1.413 2.08 3.389 3.37 9.1 4.135a90.438 90.438 0 0 0 25.793-.1c2.765-.349 4.165-.7 2.856-2.275-.612-.679-.8-1.364 2.147-1.395a55.441 55.441 0 0 0 6.117-.263c4.282-.55 2.447-1.431.807-2.385-3.113-1.835-.783-1.792 1.291-2.147 1.37-.232 2.985-.428 4.4-.612 1.741-.152 2.414-.482 2.353-.794Zm-30.65-26.748c.086-.055.422-.379.514-.361s1.144-.33 1.5-.355c.11 0 .722.2.746.183s0-.1.141-.092a3.248 3.248 0 0 1 1.7 1.028 4.031 4.031 0 0 1 .391.612 2.446 2.446 0 0 1 .355.294 2.312 2.312 0 0 0 .752.581c.141.073.544.459.557.379s.165-.11.245-.092a5.506 5.506 0 0 0 .7.11c.226 0 .343.2.508.037.049-.049.251-.061.318-.073.367-.067 1.223-.19.771-1.009a2.08 2.08 0 0 1 .208.2 1.67 1.67 0 0 1 .453.734c0 .1.067.416-.049.428s-.049.147-.1.33a.991.991 0 0 1-.373.416.569.569 0 0 1-.422.08 1.223 1.223 0 0 1-.153.2 1.994 1.994 0 0 1-.905.214 1.38 1.38 0 0 1-.508-.061 1.387 1.387 0 0 0-.55-.031 2.93 2.93 0 0 1-1.107-.281c-.086-.037-.159-.141-.19-.141a1.315 1.315 0 0 1-.447-.122 7.651 7.651 0 0 1-.881-.532 1.835 1.835 0 0 1-.428-.306c-.086-.1-.349-.428-.391-.33s-.263-.11-.294-.128a12.19 12.19 0 0 1-1.223-.942c-.08-.177-.128 0-.343-.031a2.025 2.025 0 0 0-1.113.031 2.575 2.575 0 0 1-.41 0 .8.8 0 0 1-.312.245c-.33.141-.612.294-.966.447a2.919 2.919 0 0 1 1.306-1.662Zm12.576 26.8a16.57 16.57 0 0 1 4.282 2.618c-1.382-.214-9.481-.942-10.319 0-.453.5 0 .832.391 1.077.814.275 1.138.612.3.9-4.893 1.835-9.407 2.489-14.539 1.223-3.6-.881-.544-1.278.973-1.462.838-.1 1.89-.135 4.728-.2-1.615-.838-5.743-.9-8.355-.226a10.147 10.147 0 0 1-4.037.318 14.5 14.5 0 0 1-5.224-1.676 20.3 20.3 0 0 0 7.162-.893c-4.789.141-9.976-.905-16.27.061a44.4 44.4 0 0 1 7.915-2.447c-1.719-.416-5.315-.183-7.04-.251a5.432 5.432 0 0 1-1.395-.141c-.049-.061.612-.239.691-.263 2.092-.752 6.82-2.587 8.043-2.385v1.976c4.055-1.021 7.083-.44 10.527.483 2.306.483 3.8-.049 6.013-.612l-2.557.159-13.7-.936c0-.7-.08-1.945-.049-2.771a1.37 1.37 0 0 1 .165-.813c0-.1-.061-.116-.1-.226a11.793 11.793 0 0 1 0-1.407 5.945 5.945 0 0 0 .073-.71c0-.1-.073-.1-.073-.336 0-.746-.061-1.694 0-2.447a.612.612 0 0 1 .116-.312.477.477 0 0 1-.116-.367v-.875l-2.373-.269-.612-.073-.092-.612 3.866-4.551 3.058-3.609 2.3-2.691.122-.1a.612.612 0 0 1 .226-.141.422.422 0 0 1 .153 0h.251l.318.067.3.061.612.141.11.031a1.474 1.474 0 0 1 .3.122h.147a5.033 5.033 0 0 1 .691.128l2.814.612c.41.086.893.2 1.284.312h.171a4.613 4.613 0 0 1 .55.11 2.489 2.489 0 0 1 .685.22 1.835 1.835 0 0 0 .367 0 1.664 1.664 0 0 1 .281.037l1.5.318v-1.36l1.713-.514.226.037 2.177.306v2.444c.453.1.905.19 1.358.294a.691.691 0 0 1 .306.135c.043 0 .691.073.8.1l2.025.434a.789.789 0 0 1 .281.086 1.608 1.608 0 0 0 .41.061c.453.061.942.2 1.395.294a.954.954 0 0 1 .349.128c.122.061.171 0 .3 0a1.609 1.609 0 0 1 .526.1l.183.043.11.147a4.281 4.281 0 0 1 .453.612 1.407 1.407 0 0 1 .159.3s.446.508.526.612l.569.777a.612.612 0 0 0 .08.092c.055.067.116.122.183.19a1.5 1.5 0 0 1 .171.3c.287.428.612.826.917 1.223.073.1.122.208.19.306s.147.159.208.239c.275.33.563.728.807 1.083.086.128.147.232.22.367s.141.141.257.281a4.282 4.282 0 0 1 .4.563 1.638 1.638 0 0 1 .061.214s.4.367.459.453a1.732 1.732 0 0 1 .122.171c.037.061.061.116.086.165a.361.361 0 0 1 .037.22c0 .092-.135.1-.269.1l-2.141.287v.905a.349.349 0 0 1 0 .08.208.208 0 0 1 0 .061v.577a1.713 1.713 0 0 0 0 .306 6.116 6.116 0 0 1 .061.648v1.734a.208.208 0 0 1 0 .061v.55a3 3 0 0 0 0 .4v.569a.208.208 0 0 1 0 .061v2.315-.239a14.625 14.625 0 0 1 2.716.22 16.022 16.022 0 0 1 7.627 3.321c-1.481-.175-9.714-.371-10.693-.028Z" fill="#d16d56"/>
		</g>
	</g>
</svg>