<svg xmlns="http://www.w3.org/2000/svg" width="79.876" height="70" viewBox="0 0 79.876 70">
	<g>
		<g>
		<path d="M79.872 57.344a6.922 6.922 0 0 0-3.061-3.832c-1.349-1.092-5.395-2.533-7.072-3.083.878-.243 1.984-1.284 5.345 0 .457.171.128-.471 1.427-.714l.992-.143c-1.035-3.126-1.427-.714-5.316-2.854a12.353 12.353 0 0 0-3.568-.929l1.491-.45c1.127-.328 2.726.8 3.468.549.528-.178 1.991 0 2.99-.285.335-.642-.221-.492-.2-1.313-.485-.128-1.127-.221-1.627-.321a9.177 9.177 0 0 1-3.989-1.58c-.442-.285-2.262-1.427-1.855-2.091l2.683.714c.714.2.478-.485.771-.3 1.791 1.113 2.3-.257 3.668-.221-.136-.3 0-.664-.157-.963-.057-.15-.35-.235-.414-.378a10.3 10.3 0 0 1-3.525-1.161c-1.9-.835-1.92-.714-2.726-2.8l.285-.257a24.692 24.692 0 0 0 2.9.978c.285-.271 0-.778.478-.671 1.02.25.6.278 1.634-.071-.271-.585 0-.535-.243-1.127 0 0-4.146-1.2-4.71-1.912a1.606 1.606 0 0 1-.464-1.763c.642.892.714 1.042 1.691.664.171.193.35.378.528.571.164-.036.6-.086.714-.207a2.319 2.319 0 0 1 1.135-.492c-.164-.378 0-.714-.143-1.049 0-.114-.357-.278-.4-.392-.571 0-3.2-.664-3.09-1.427l-.4-.435c-.364-.842 2.141-.307 2.462-.193.549-.45.328-.343.956-.371-.093-.714-.385-1.2-.985-1.22-1.163-.043-1.541-.714-2.512-1.484.714-.178.714.157 1.5-.328.293.093.714 0 1.013.078.157-.278.293-.285.542-.571a4.344 4.344 0 0 0-.123-.521c-.221-.621-1.556-.093-2.034-.671-1.142-1.384.571-.471 1.427-.949l.2-.557c-2.141-.614-1.32-1.584-1.934-3.511 0-.064-.057-.136-.114-.071-.614.678-.649 3.5-3.218 2.94l.043.378a6.423 6.423 0 0 0 1.028.714c.057.036.664.15.664.15 0 .521-1.349.585-1.663.628-.457.071-1.263-.428-1.263-.05 0 1.356 1.156 1.427 1.613 1.748.114.071.792.25.8.264.3.45-2.312.956-2.462.963-.885.071-1.741-.578-1.77.235s2.034 1.513 2.555 1.427c.271 0 1.22.293.714.8-.285.307-3.011.243-3.568.107s-1.47-.813-1.57-.235a1.427 1.427 0 0 0 .293 1.249c.514.492 1.427.307 1.491.628.057.492 1.6 1.056 2.241 1.1.157 0 .086.243.064.307-.25 1.049-3.975 1.427-4.717 1.313h-.078a3.832 3.832 0 0 1 1.085-.307c.164-.064.828-.285 1.013-.193.343.178.657-.193.714-.207-.05-.535-.071-.557-.264-.714s-.25-.728-1.22-1.063c-.714-.257-2.141-.649-3.011-.885-.714-.2-1.713-.6-1.927-1.028-.157-.578.614-.792 1.327-.856 1.292 0-.235.442 1.427.357.549.043 1.284 0 1.427-.407.057-.171 1.049.05 1.677-.521.221-2.141-3.3-1.427-4.36-1.941 0 0-3.568-1.577-2.662-2.019s2.526.714 3.7.15a24.534 24.534 0 0 0 2.355-1.006c.378-.464.642-.285.164-.935h-1.07c-.863 0-5.323-.535-5.438-1.6a.714.714 0 0 0-.1-.321c.485.171 3.646.271 3.6-.257-.078-1.056 1.92-.25 1.8-2.012 0-.564-1.227-.057-1.877 0-.521.043-6.044-.285-3.646-1.242.571-.228.6.178 1.541-.071.371-.1 2.683-.414 2.141-1.356a23.835 23.835 0 0 1-2.583-.3c-.107-.043-2.205-.821-1.855-1.142 0 0 .778-.078.928-.128.592-.214 1.834-.128 2.141-1.427.078-.35-.892 0-1.334-.143-2.141-.657-1.591-1.135-1.277-.9s1.37-.392 1.705-.557l.136-.364c-2.919.171-2.069-3.518-2.662-2.8-1.092 1.427-1.028 2.355-2.769 2.555-.128.621.257.714.906.813.143 0 1.235-.178.514.343-.863.621-2.633.243-2.854.9-.043.1-.121.357-.164.421.157.335.485.293.578.614.343 0 .557.164.892.128.828.314.756.514 1.527.557-1.306.806-1.841 1.52-3.24 1.327-.714-.078-1.127.378-1.384 1.042.714.143.464 0 .978.528.378-.071 3.09-.4 2.683.257 0 0-.806.778-.828.792a10.875 10.875 0 0 1-4.018.578.257.257 0 0 0-.321.136c-.114.207.171.335-.043.714.785.385.714.214 1.356.771.128.107 1.427.407 1.805.564.714.3.714.05 1.656-.214a1.162 1.162 0 0 0 .05.214 5 5 0 0 1-2.517 2.088 10.99 10.99 0 0 1-1.606.343 5.288 5.288 0 0 1-1.37.036c-.357.435 0 .478 0 .592 1.156.642.4.407 1.491.414.421 0 .25.257.114.542-.809-.228-1.509-.567-2.209-.714-1.477-.371-2.819-.585-2.141-1.149 1.684-1.427 1.92-.136 2.59-.485.956-.5 1.484.621 1.656-.086.043-.164 1.006.043 1.563-.492.064-2.012-3.233-1.349-4.282-1.848 0 0-3.475-1.491-2.662-1.92s2.441.714 3.525.15a23.4 23.4 0 0 0 2.141-.956c.328-.442.592-.271.093-.892h-.963c-.821 0-5.088-.507-5.266-1.513a.714.714 0 0 0-.121-.307c.478.164 3.482.257 3.411-.243-.15-1.006 1.805-.235 1.57-1.912-.071-.528-1.17-.05-1.784 0-.492 0-5.759-.278-3.568-1.185.528-.214.585.164 1.427-.071.343-.086 2.519-.385 1.912-1.277 0-.057-1.834-.086-2.469-.293-.107 0-2.141-.778-1.841-1.078 0 0 .714-.078.878-.128.542-.2 1.727-.121 1.92-1.363.05-.328-.849 0-1.277-.136-2-.671-1.527-1.135-1.213-.906s1.27-.392 1.584-.535a1.245 1.245 0 0 1 .1-.343c-1.427.093-1.813-.913-2.055-1.713a11.366 11.366 0 0 0-.282-1.29.174.174 0 0 0-.3.036c-.1.157-.285.842-.4 1.063-.564 1.035-.657 1.556-2.055 1.713-.078.585.293.714.913.771.136 0 1.163-.171.514.321-.778.592-2.091.578-2.662 1.02a.714.714 0 0 0-.15.243 2.141 2.141 0 0 1 .25.521c.321-.043.878.214 1.2.178a1.32 1.32 0 0 0 1.235.335c.086 0 .128.221.25.193a7.022 7.022 0 0 1-3.283 1.242c-.664 0-.714.35-.921.978.714.143.442 0 .963.507.407-.078 3.675-.478 2.226.571a3.725 3.725 0 0 1-2.812.714c-.193 0-1.306.307-1.52.278-.221.435-.107.457-.343.892.771.364.849.121 1.5.649.05.036.478.235.578.285.193-.157.714-.071.921-.235 1.02.492.9.528 1.862.25l.064.2a3.815 3.815 0 0 1-3.468 2.141c-.435-.057-.564-.114-.963.171-.171-.114-.764.071-.935-.05-.8.121-.193.657-.442.985 1.142.607.785.478 1.82.471.885 0-.478.749 1.427.756 1.477 0 1.784-.628 2.3-.549-.571 1.427-.649 1.741-3.161 2.184a13.237 13.237 0 0 1-3.247.478l-.3.557.385.614c.635.093.921.128 1.163.371-2.041.171-4.888-.942-4.867-1.27a.714.714 0 0 0-.1-.478 2.64 2.64 0 0 0 .771.178 16.135 16.135 0 0 0 2.541-.146c.221-.121-.05-.442.143-.621a1.627 1.627 0 0 1 .664-.243l.714-.514c.171-.614.186-1.042-.043-1.156a4.432 4.432 0 0 0-.714.228 5.466 5.466 0 0 1-1.363.235c-.193 0-.714-.036-.714-.036l-2.555-.442s-.392-.357-.278-.442a5.709 5.709 0 0 1 .814-.335 2.462 2.462 0 0 0 .935.107 15.47 15.47 0 0 0 1.763-.549c.078-.107.385-.136.4-.392s0-.485-.15-.549c-.3-.086 0 .057-1.07.086a7.992 7.992 0 0 1-2.7-.671c-.328-.107-.906-.578-.435-.507s.764-.221 1.163-.257a2.469 2.469 0 0 0 .678-.15l.35-.407.178-.385s.221-.564-.093-.5l-.842.15a10.925 10.925 0 0 1-1.884-.492c0-.05-.1-.228-.05-.235s.271.043.385.036a4.467 4.467 0 0 0 .714-.293l.592-.392v-.335a5.416 5.416 0 0 1-.557.057c-1.377 0-1.613-1.691-1.927-2.712-.1-.307-.264-.243-.35 0a10.137 10.137 0 0 1-.714 2.248 4.175 4.175 0 0 1-1.848.714l.093.457a3.4 3.4 0 0 0 1.506.186c1.013-.057-.178.764-.178.764l-.985.157-1.028-.036c-.157 0-.514.621-.514.621a3.361 3.361 0 0 0 .407.371 1.085 1.085 0 0 1 .257.285l1.085-.164a3.8 3.8 0 0 0 .913.535 6.3 6.3 0 0 0 .771-.121l-1.648.756-.714.228-.963-.014-.649.214-.371.3-.143.414.657.05.457.321.714-.128h1.185a7.643 7.643 0 0 1 .992.25c.136.043.057.285.057.285l-.521.3s0 .335-.935.514a21.266 21.266 0 0 1-2.255.357 8.235 8.235 0 0 0-1.042.143l-.271.414v.435l.963.442.25.228.771.2.678-.407a6.622 6.622 0 0 0 .821.264 1.912 1.912 0 0 0 .714-.143l.571-.428.057.614a6.85 6.85 0 0 1-1.206.678c-1.427.635-2.94.521-4 .942l-1.713.164.157.992s.978.321 1.156.357.97-.285 1.006.05.186.371.186.371 1.256-.107 1.748-.107a8.92 8.92 0 0 0 1.477-.235l.281.268c-1.035 1.606-.778 1.02-3.068 1.541-1.427.314-1.805.357-3.061.714l-.157.343.171.328a.842.842 0 0 1 .514 0c.086.057.057.221.157.243.293.071.578-.086.714-.071a5.958 5.958 0 0 1 1.5.207 1.063 1.063 0 0 1 .428.364c.093.114.407 0 .578 0s.15.293.314.314c.442.078.571.064.478.285s.264.428-2.027 1.092c-3.568 1.042-2.754.714-3.5.778h-.228c-.521-.235-.856-.457-.856-.564a.714.714 0 0 0-.086-.45 2.426 2.426 0 0 0 .714.207 9.519 9.519 0 0 0 1.862-.186 2.855 2.855 0 0 0 .592-.371 1.427 1.427 0 0 1 .614-.193l.671-.428c.157-.557.171-.714 0-.849a3.882 3.882 0 0 0-.628.178 4.46 4.46 0 0 1-1.249-.078c-.178 0-.642-.071-.642-.071l-2.4-.528s-.35-.35-.25-.421a5.1 5.1 0 0 1 .749-.264 2.141 2.141 0 0 0 .849.143 13.009 13.009 0 0 0 1.62-.407c.071-.093.35-.1.364-.335s0-.442-.136-.514c-.271-.093 0 .057-.978 0a7.85 7.85 0 0 1-2.462-.764c-.3-.114-.828-.578-.392-.485s.714-.164 1.07-.178a2.048 2.048 0 0 0 .614-.1l.485-.714s.214-.507-.078-.464-.649.078-.792.093a10.29 10.29 0 0 1-1.713-.549c0-.05-.086-.321-.036-.328s.235.164.343.157a3.218 3.218 0 0 0 .714-.228l.535-.321v-.316a3.568 3.568 0 0 1-.514 0 2.8 2.8 0 0 1-.885-.35 5.2 5.2 0 0 1-.856-1.827c0-.043-.093-.343-.178-.143a9.933 9.933 0 0 1-.942 1.7 3.5 3.5 0 0 1-1.536.592v.285a2.44 2.44 0 0 0 1.035.307 2.555 2.555 0 0 0 .542-.057c.171 0 .128.086.107.193s-.186.214-.514.307a8.406 8.406 0 0 1-1.748.335c-.143 0-.471.535-.471.535a3.632 3.632 0 0 0 .371.364.942.942 0 0 1 .228.278l.963-.093a3.568 3.568 0 0 0 .835.535 4.923 4.923 0 0 0 .714-.071l-1.513.821-.678.171-.856-.078-.6.157-.335.257-.136.371.592.078.421.321.628-.078s.906.086 1.078.093a3.511 3.511 0 0 1 .906.086c.128.05.057.264.057.264l-.485.25s0 .307-.856.421a19.347 19.347 0 0 1-2.062.207l-.642-.057-.414.243-.357.856 1.02.35.228.228.714.321.621-.343a6.608 6.608 0 0 0 .749.293 1.67 1.67 0 0 0 .621-.1l.528-.064.043.171a2.954 2.954 0 0 1-1.106.856 11.582 11.582 0 0 1-1.905.642c-.257 0-.985-.107-.985-.107l-.756.243h-.796l-.35.235-.228.521s.885.343 1.049.385.892-.207.921.1a.714.714 0 0 0 .171.45l1.6.1a4.667 4.667 0 0 0 1.349-.335l.257.064c-.963 1.427-.714 1.384-2.819 1.741a9.9 9.9 0 0 1-2.219.307H4.302l-.257.207-.186.849s.892 0 1.02.214a5.588 5.588 0 0 1 .307.628 3.182 3.182 0 0 1 .678-.143 8.836 8.836 0 0 1 1.006.2 2.227 2.227 0 0 1 .421-.143c.05 0 .243.357.321.414s2.769-.057 2.769-.057a.407.407 0 0 1-.157.507 5.509 5.509 0 0 1-2.975 1.473c-3.3.771-2.519.457-3.2.528-1.577.164-1.056.25-1.541.97a.714.714 0 0 0 0 .635l.657.164 1.263.043a1.62 1.62 0 0 1 .492.178 3.668 3.668 0 0 0 1.106.078 11.717 11.717 0 0 1 1.427-.078c.2.057 1.12 0 1.263.078s.264.128.564.257l-.143.186-.778.671s-1.634.735-1.82.785-4 .756-4.317.792-.842.878-.842.878l.064.414.136.114.756.378s1.113 0 1.185.178a.714.714 0 0 0 .485.264 5.71 5.71 0 0 1 1.028-.35c.171 0 .849.307 1.013.321s.714-.507 1.006-.392a2.612 2.612 0 0 0 .863.05c.214 0 .628.464.935.614a4.393 4.393 0 0 0 .6 0 9.07 9.07 0 0 0-2.59.714 7.528 7.528 0 0 1-3.268.863c-.714 0-.621.278-.863 1.056.264 0 .428.407.714.45 1.035.157 1.427.45 1.805.314a4.01 4.01 0 0 1 1.991-.136c1.192 0 1.427.528 1.991.407 1.185-.243 1.313-.314 1.506-.221-.771.343-1.491.714-2.084.942C5.872 50.237 2.939 50.7.799 52.977c-1.135 1.184-1.37 2.412 1.391 2.712.6.057 4.282.913 2.754 2.077-1.955 1.113-3.725 3.811 1.27 4.453a64.619 64.619 0 0 0 7.136.307c3.432.036 3.218.828 2.512 1.627-1.648 2.426 3.953 3.932 10.611 4.824 11.146 1.484 18.889 1.277 30.092-.114 3.225-.407 4.86-.813 3.332-2.655-.714-.792-.928-1.591 2.5-1.627a64.679 64.679 0 0 0 7.136-.307c5-.642 2.854-1.67.942-2.783-3.632-2.141-.913-2.091 1.506-2.5 1.6-.271 3.482-.5 5.131-.714 2.047-.188 2.831-.569 2.76-.933ZM44.114 26.138c.1-.064.492-.442.6-.421s1.334-.385 1.748-.414c.128 0 .842.235.871.214s0-.121.164-.107a3.789 3.789 0 0 1 1.984 1.2 4.7 4.7 0 0 1 .457.714 2.854 2.854 0 0 1 .414.343 2.7 2.7 0 0 0 .878.678c.164.086.635.535.649.442s.193-.128.285-.107a6.424 6.424 0 0 0 .814.128c.264 0 .4.228.592.043.057-.057.293-.071.371-.086.428-.078 1.427-.221.9-1.177a2.426 2.426 0 0 1 .243.228 1.948 1.948 0 0 1 .528.856c0 .121.078.485-.057.5s-.057.171-.121.385a1.156 1.156 0 0 1-.435.485.664.664 0 0 1-.492.093 1.427 1.427 0 0 1-.178.228 2.326 2.326 0 0 1-1.056.25 1.61 1.61 0 0 1-.592-.071 1.618 1.618 0 0 0-.642-.036 3.418 3.418 0 0 1-1.292-.328c-.1-.043-.186-.164-.221-.164a1.534 1.534 0 0 1-.521-.143 8.927 8.927 0 0 1-1.028-.621 2.141 2.141 0 0 1-.5-.357c-.1-.114-.407-.5-.457-.385s-.307-.128-.343-.15a14.223 14.223 0 0 1-1.427-1.1c-.093-.207-.15 0-.4-.036a2.362 2.362 0 0 0-1.3.036 3 3 0 0 1-.478 0 .928.928 0 0 1-.364.285c-.385.164-.714.343-1.127.521a3.405 3.405 0 0 1 1.533-1.926Zm14.672 31.27a19.331 19.331 0 0 1 5 3.054c-1.613-.25-11.061-1.1-12.038 0-.528.578 0 .97.457 1.256.949.321 1.327.714.35 1.049-5.709 2.141-10.975 2.9-16.962 1.427-4.2-1.028-.635-1.491 1.135-1.705.978-.121 2.205-.157 5.516-.235-1.884-.978-6.7-1.049-9.748-.264a11.838 11.838 0 0 1-4.71.371 16.919 16.919 0 0 1-6.094-1.955 23.684 23.684 0 0 0 8.356-1.042c-5.587.164-11.639-1.056-18.982.071 2.64-1.327 7.029-2.291 9.234-2.854-2.005-.485-6.2-.214-8.213-.293a6.337 6.337 0 0 1-1.627-.164c-.057-.071.714-.278.806-.307 2.44-.878 7.957-3.019 9.384-2.783v2.3c4.731-1.192 8.263-.514 12.281.564 2.69.564 4.431-.057 7.015-.714l-2.983.186-15.991-1.087c0-.821-.093-2.269-.057-3.233a1.6 1.6 0 0 1 .193-.949c0-.114-.071-.136-.114-.264a13.758 13.758 0 0 1 0-1.641 6.937 6.937 0 0 0 .086-.828c0-.114-.086-.114-.086-.392 0-.871-.071-1.977 0-2.854a.714.714 0 0 1 .136-.364.557.557 0 0 1-.136-.428v-1.02l-2.765-.316-.714-.086-.107-.714 4.51-5.309 3.568-4.21 2.683-3.14.143-.121a.714.714 0 0 1 .264-.164.493.493 0 0 1 .178 0h.293l.371.078.35.071.714.164.128.036a1.72 1.72 0 0 1 .35.143h.169a5.872 5.872 0 0 1 .8.147l3.283.714c.478.1 1.042.228 1.5.364h.2a5.381 5.381 0 0 1 .642.128 2.9 2.9 0 0 1 .8.257 2.141 2.141 0 0 0 .428 0 1.941 1.941 0 0 1 .328.043l1.755.371v-1.577l2-.6.264.043 2.54.357v2.854c.528.114 1.056.221 1.584.343a.806.806 0 0 1 .357.157c.05 0 .806.086.928.114l2.362.507a.92.92 0 0 1 .328.1 1.877 1.877 0 0 0 .478.071c.528.071 1.1.228 1.627.343a1.113 1.113 0 0 1 .407.15c.143.071.2 0 .35 0a1.877 1.877 0 0 1 .614.114l.214.05.128.171a5 5 0 0 1 .528.714 1.641 1.641 0 0 1 .186.35s.521.592.614.714l.664.906a.714.714 0 0 0 .093.107c.064.078.136.143.214.221a1.748 1.748 0 0 1 .2.35c.335.5.714.963 1.07 1.427.086.121.143.243.221.357s.171.186.243.278c.321.385.657.849.942 1.263.1.15.171.271.257.428s.164.164.3.328a5 5 0 0 1 .464.657 1.911 1.911 0 0 1 .071.25s.464.428.535.528a2.02 2.02 0 0 1 .143.2c.043.071.071.136.1.193a.421.421 0 0 1 .038.255c0 .107-.157.114-.314.121l-2.5.335v1.054a.406.406 0 0 1 0 .093.243.243 0 0 1 0 .071V45.834a2 2 0 0 0 0 .357 7.135 7.135 0 0 1 .071.756v2.027a.243.243 0 0 1 0 .071v.644a3.5 3.5 0 0 0 0 .464v.664a.243.243 0 0 1 0 .071V53.589v-.278a17.062 17.062 0 0 1 3.168.257 18.692 18.692 0 0 1 8.9 3.875c-1.725-.206-11.325-.434-12.469-.035Z" fill="#fcfbf8"/>
		</g>
	</g>
</svg>